<?xml version="1.0" encoding="UTF-8"?>
<!DOCTYPE svg PUBLIC "-//W3C//DTD SVG 1.1//EN" "http://www.w3.org/Graphics/SVG/1.1/DTD/svg11.dtd">
<!-- Creator: CorelDRAW X8 -->
<svg xmlns="http://www.w3.org/2000/svg" xml:space="preserve" width="1967px" height="534px" version="1.1" style="shape-rendering:geometricPrecision; text-rendering:geometricPrecision; image-rendering:optimizeQuality; fill-rule:evenodd; clip-rule:evenodd"
viewBox="0 0 2021 548"
 xmlns:xlink="http://www.w3.org/1999/xlink">
 <defs>
  <style type="text/css">
   <![CDATA[
    .fil2 {fill:#293352}
    .fil3 {fill:#00AFEF;fill-rule:nonzero}
    .fil0 {fill:#3BB0C8;fill-rule:nonzero}
    .fil1 {fill:#293352;fill-rule:nonzero}
   ]]>
  </style>
 </defs>
 <g id="Layer_x0020_1">
  <metadata id="CorelCorpID_0Corel-Layer"/>
  <g id="_2280589189008">
   <g>
    <path class="fil0" d="M136 420l16 0 0 0 -16 0 0 0zm34 -16l0 0 1 -16 16 0 -1 16 -16 0 0 0 0 0 0 0zm-69 48l0 0 16 0 0 0 0 0 2 -16 0 0 0 0 16 0 0 0 0 0 1 -16 16 0 -1 16 16 0 1 -16 16 0 16 0 2 -16 16 0 0 0 0 -5 1 -11 16 0 0 -1 1 -30c-15,-11 -29,-23 -39,-39 -2,-3 -3,-6 -4,-10l-44 13 -62 147 13 0 1 -16 0 0z"/>
    <path class="fil1" d="M321 222l8 2 -1 8c-2,8 -2,15 -3,23 -1,10 -2,20 -4,30l41 16 164 -110 -190 2 -20 27c1,1 3,1 5,2z"/>
    <path class="fil1" d="M260 203l3 -1 2 1c9,3 17,6 26,9 1,0 1,0 2,0l28 -32 -42 -180 -72 180 22 32c10,-3 20,-6 31,-9z"/>
    <path class="fil1" d="M188 285c0,-9 1,-19 2,-28 0,-9 1,-17 1,-25l-1 -8 9 -2c2,-1 4,-2 6,-2l-16 -27 -189 -2 144 110 44 -16z"/>
    <polygon class="fil0" points="126,456 142,456 144,440 128,440 "/>
    <polygon class="fil0" points="141,468 157,468 159,452 143,452 "/>
    <polygon class="fil0" points="110,481 126,481 127,465 111,465 "/>
    <polygon class="fil0" points="76,495 92,495 94,479 78,479 "/>
    <path class="fil1" d="M311 307c-1,3 -3,6 -6,9 -12,16 -29,28 -46,39l-3 30 141 112 -44 -178 -42 -12z"/>
    <path class="fil2" d="M643 392c5,-28 13,-71 25,-131 -1,52 -1,96 -1,131l-24 0zm78 -200l-100 0 0 0 -59 0 -1 3c22,5 40,14 55,25l-57 283 71 0 9 -56 25 0 -1 56 70 0 -12 -311z"/>
    <polygon class="fil2" points="842,192 821,441 862,441 857,503 746,503 774,192 "/>
    <polygon class="fil2" points="972,192 950,441 991,441 986,503 876,503 903,192 "/>
    <path class="fil2" d="M1167 286l-64 0 2 -23c1,-11 1,-18 0,-20 -2,-3 -4,-5 -8,-5 -4,0 -7,2 -10,6 -2,4 -4,10 -5,18 -1,10 0,18 2,23 2,6 8,12 18,19 28,22 46,39 53,53 6,14 8,36 6,66 -2,23 -6,39 -11,49 -5,11 -15,20 -28,27 -13,7 -28,10 -45,10 -18,0 -34,-4 -46,-12 -12,-8 -20,-19 -23,-31 -3,-13 -3,-31 -1,-54l2 -21 64 0 -4 38c-1,12 0,19 1,23 2,3 5,5 9,5 5,0 8,-2 11,-7 3,-4 4,-10 5,-18 1,-19 0,-31 -3,-36 -4,-6 -14,-15 -30,-29 -16,-13 -26,-23 -31,-29 -5,-6 -9,-14 -12,-25 -3,-10 -3,-24 -2,-40 2,-24 6,-41 12,-52 7,-11 16,-20 28,-26 12,-6 26,-10 42,-10 18,0 33,4 45,11 12,6 20,15 23,25 3,11 3,28 1,53l-1 12z"/>
    <polygon class="fil2" points="1205,192 1319,192 1314,254 1268,254 1263,313 1306,313 1300,372 1258,372 1252,441 1302,441 1297,503 1177,503 "/>
    <path class="fil2" d="M1494 327l-69 0 5 -54c2,-15 2,-25 1,-29 -2,-4 -5,-6 -10,-6 -5,0 -9,2 -11,7 -2,5 -3,15 -5,31l-12 144c-2,15 -2,25 -1,30 1,4 5,7 10,7 5,0 8,-3 10,-7 2,-5 4,-16 6,-33l3 -39 69 0 -1 12c-3,32 -7,55 -12,69 -5,13 -15,25 -29,35 -14,10 -31,15 -50,15 -20,0 -36,-4 -49,-12 -12,-9 -20,-21 -22,-36 -3,-15 -4,-38 -1,-69l8 -90c2,-23 4,-40 6,-51 3,-11 8,-22 15,-32 7,-11 17,-19 29,-25 12,-6 26,-9 40,-9 21,0 37,5 49,14 13,9 20,21 23,35 3,13 3,35 1,64l-3 29z"/>
    <path class="fil2" d="M1689 192l-18 208c-2,23 -4,40 -6,49 -2,10 -7,20 -14,30 -8,10 -17,17 -28,23 -11,5 -23,7 -38,7 -15,0 -29,-3 -41,-9 -11,-6 -19,-14 -25,-24 -5,-10 -7,-20 -7,-31 -1,-11 1,-34 4,-69l16 -184 69 0 -21 233c-1,14 -1,22 0,26 1,4 3,6 7,6 4,0 7,-2 9,-7 1,-4 3,-14 4,-29l20 -229 69 0z"/>
    <path class="fil2" d="M1718 192l49 0c32,0 54,1 65,4 11,3 20,11 26,23 6,12 8,31 6,58 -2,24 -6,40 -12,48 -6,9 -16,14 -31,15 13,4 21,10 26,16 4,7 6,13 7,19 0,5 0,20 -3,46l-7 82 -64 0 9 -104c2,-16 2,-27 0,-31 -2,-4 -8,-6 -17,-6l-12 141 -69 0 27 -311zm64 53l-6 69c8,0 13,-1 17,-4 3,-2 5,-10 6,-24l2 -17c1,-10 0,-17 -3,-20 -3,-3 -8,-4 -16,-4z"/>
    <polygon class="fil2" points="1900,192 2014,192 2009,254 1963,254 1958,313 2001,313 1996,372 1953,372 1947,441 1997,441 1992,503 1873,503 "/>
    <polygon class="fil0" points="106,524 90,524 91,508 107,508 "/>
    <polygon class="fil0" points="64,548 48,548 50,532 66,532 "/>
   </g>
   <path class="fil3" d="M849 63l-5 6c-3,-4 -7,-7 -11,-9 -4,-2 -8,-3 -12,-3 -6,0 -11,1 -15,4 -5,3 -9,6 -12,11 -3,5 -5,10 -5,15 -1,6 0,11 2,16 2,5 6,9 10,12 4,3 9,4 15,4 6,0 12,-2 17,-6 5,-5 8,-10 10,-17l-21 0 1 -7 28 0c-1,11 -5,20 -12,27 -6,7 -14,10 -24,10 -12,0 -21,-5 -27,-14 -5,-7 -7,-15 -6,-24 1,-7 3,-14 6,-20 4,-6 9,-10 14,-14 6,-3 12,-5 19,-5 5,0 11,2 15,4 5,2 9,6 13,10z"/>
   <path id="1" class="fil3" d="M901 106l5 3c-2,4 -5,7 -7,9 -3,3 -5,4 -8,6 -3,1 -6,1 -10,1 -8,0 -13,-3 -17,-8 -4,-6 -6,-13 -5,-20 0,-7 3,-13 7,-18 6,-7 12,-10 20,-10 8,0 14,3 19,10 3,5 4,11 3,19l-43 0c0,6 1,11 4,15 3,4 7,6 12,6 3,0 5,-1 7,-1 3,-1 5,-3 7,-4 1,-2 3,-4 6,-8zm1 -14c0,-4 -1,-7 -3,-9 -1,-2 -3,-4 -5,-5 -3,-2 -6,-3 -8,-3 -5,0 -9,2 -13,6 -3,2 -5,6 -7,11l36 0z"/>
   <polygon id="2" class="fil3" points="929,50 935,50 934,70 943,70 943,76 933,76 929,124 922,124 927,76 919,76 919,70 927,70 "/>
   <polygon id="3" class="fil3" points="960,50 966,50 964,70 974,70 973,76 963,76 959,124 953,124 957,76 949,76 950,70 958,70 "/>
   <path id="4" class="fil3" d="M987 48c2,0 3,1 4,2 1,1 1,2 1,4 0,1 -1,3 -2,4 -1,1 -2,2 -4,2 -1,0 -2,-1 -3,-2 -1,-1 -1,-3 -1,-4 0,-2 0,-3 2,-4 1,-1 2,-2 3,-2zm-5 22l6 0 -5 54 -6 0 5 -54z"/>
   <path id="5" class="fil3" d="M1001 70l6 0 -1 10c3,-4 6,-7 9,-8 3,-2 7,-3 10,-3 4,0 7,1 9,3 3,2 5,5 6,8 1,4 1,9 0,16l-2 28 -6 0 2 -26c1,-6 1,-10 0,-12 0,-4 -1,-6 -3,-8 -2,-2 -4,-3 -8,-3 -3,0 -7,2 -10,4 -3,3 -5,7 -7,11 -1,2 -1,7 -2,14l-2 20 -6 0 5 -54z"/>
   <path id="6" class="fil3" d="M1097 70l6 0 -4 43c0,8 -2,13 -3,17 -2,4 -5,8 -10,11 -4,3 -9,4 -14,4 -4,0 -8,-1 -11,-2 -3,-1 -6,-3 -8,-5 -1,-2 -3,-6 -4,-10l6 0c2,4 4,6 7,8 2,2 6,3 10,3 4,0 8,-1 11,-3 3,-2 5,-4 7,-7 1,-2 2,-7 3,-12l0 -3c-3,3 -6,6 -9,7 -4,2 -7,3 -11,3 -4,0 -8,-1 -12,-4 -4,-2 -6,-5 -8,-10 -2,-4 -2,-8 -2,-13 1,-5 2,-10 5,-14 2,-4 6,-8 10,-10 4,-3 8,-4 12,-4 4,0 7,1 10,2 3,2 6,5 8,9l1 -10zm-19 6c-3,0 -6,1 -9,2 -4,2 -6,5 -8,8 -2,4 -3,7 -4,11 0,6 1,11 4,15 3,4 8,6 13,6 6,0 11,-2 14,-6 4,-4 6,-9 7,-15 0,-4 0,-8 -1,-11 -2,-3 -4,-6 -6,-8 -3,-1 -6,-2 -10,-2z"/>
   <polygon id="7" class="fil3" points="1148,50 1155,50 1153,70 1162,70 1162,76 1152,76 1148,124 1142,124 1146,76 1138,76 1138,70 1147,70 "/>
   <path id="8" class="fil3" d="M1174 49l6 0 -3 31c3,-4 6,-7 9,-8 3,-2 6,-3 10,-3 3,0 7,1 9,3 3,2 5,5 5,8 1,4 2,9 1,16l-3 28 -6 0 3 -26c0,-6 0,-10 0,-12 0,-4 -1,-6 -3,-8 -2,-2 -5,-3 -8,-3 -4,0 -7,2 -10,4 -4,3 -6,7 -7,11 -1,2 -2,7 -2,14l-2 20 -6 0 7 -75z"/>
   <path id="9" class="fil3" d="M1263 106l5 3c-2,4 -4,7 -6,9 -3,3 -6,4 -8,6 -3,1 -7,1 -10,1 -8,0 -14,-3 -18,-8 -3,-6 -5,-13 -4,-20 0,-7 3,-13 7,-18 5,-7 12,-10 20,-10 8,0 14,3 18,10 3,5 5,11 4,19l-43 0c-1,6 1,11 4,15 3,4 7,6 12,6 2,0 5,-1 7,-1 3,-1 5,-3 6,-4 2,-2 4,-4 6,-8zm2 -14c-1,-4 -2,-7 -3,-9 -1,-2 -3,-4 -6,-5 -2,-2 -5,-3 -8,-3 -4,0 -9,2 -12,6 -3,2 -5,6 -7,11l36 0z"/>
   <path id="10" class="fil3" d="M1305 124l7 -75 6 0 -2 31c2,-4 6,-7 9,-8 3,-2 7,-3 11,-3 6,0 12,3 16,8 4,6 6,12 5,20 0,8 -3,15 -9,20 -5,6 -11,8 -18,8 -4,0 -7,-1 -10,-2 -3,-2 -6,-5 -8,-9l-1 10 -6 0zm25 -5c4,0 7,-1 10,-3 3,-2 6,-5 8,-8 2,-4 3,-7 3,-11 1,-4 0,-7 -1,-11 -2,-3 -4,-6 -6,-8 -3,-2 -6,-3 -10,-3 -3,0 -6,1 -9,3 -4,2 -6,5 -8,8 -2,3 -3,7 -3,11 -1,6 0,11 4,15 3,5 7,7 12,7z"/>
   <path id="11" class="fil3" d="M1408 106l5 3c-2,4 -4,7 -7,9 -2,3 -5,4 -8,6 -3,1 -6,1 -9,1 -8,0 -14,-3 -18,-8 -4,-6 -5,-13 -5,-20 1,-7 3,-13 8,-18 5,-7 12,-10 20,-10 8,0 14,3 18,10 3,5 4,11 4,19l-43 0c-1,6 0,11 3,15 3,4 8,6 13,6 2,0 4,-1 7,-1 2,-1 4,-3 6,-4 2,-2 4,-4 6,-8zm1 -14c0,-4 -1,-7 -2,-9 -2,-2 -4,-4 -6,-5 -3,-2 -5,-3 -8,-3 -5,0 -9,2 -13,6 -2,2 -5,6 -6,11l35 0z"/>
   <path id="12" class="fil3" d="M1453 76l-4 5c-3,-4 -6,-6 -9,-6 -2,0 -4,1 -6,3 -1,1 -2,3 -2,5 -1,1 0,3 1,5 1,1 3,3 7,5 4,3 7,6 8,8 2,3 2,5 2,8 0,5 -2,9 -5,12 -3,3 -7,4 -11,4 -3,0 -5,0 -8,-2 -2,-1 -4,-3 -5,-5l4 -5c3,4 6,6 9,6 3,0 5,-1 7,-3 2,-2 3,-4 3,-6 0,-2 0,-4 -1,-5 -1,-2 -4,-4 -7,-6 -4,-3 -7,-5 -8,-8 -2,-2 -2,-5 -2,-8 0,-4 2,-7 5,-10 2,-3 6,-4 9,-4 5,0 9,2 13,7z"/>
   <polygon id="13" class="fil3" points="1472,50 1478,50 1476,70 1486,70 1485,76 1475,76 1471,124 1465,124 1469,76 1461,76 1461,70 1470,70 "/>
   <path id="14" class="fil3" d="M1543 69c7,0 13,3 17,9 4,5 6,12 5,19 -1,8 -4,14 -9,20 -5,6 -11,8 -19,8 -7,0 -13,-2 -17,-8 -4,-6 -6,-12 -5,-20 1,-7 3,-14 8,-19 6,-6 12,-9 20,-9zm-1 7c-5,0 -10,2 -14,6 -4,4 -6,9 -7,15 0,4 0,8 2,11 1,4 3,6 6,8 2,2 5,3 9,3 3,0 6,-1 9,-3 3,-2 6,-4 8,-8 2,-3 3,-7 3,-11 1,-6 0,-11 -4,-15 -3,-4 -7,-6 -12,-6z"/>
   <path id="15" class="fil3" d="M1600 50l0 6c-2,-1 -4,-1 -6,-1 -1,0 -2,0 -3,0 -1,1 -1,2 -2,2 0,1 0,3 -1,6l0 7 10 0 -1 6 -10 0 -4 48 -6 0 4 -48 -6 0 0 -6 7 0 0 -8c1,-4 1,-7 2,-8 1,-2 2,-3 4,-4 1,-1 3,-2 5,-2 2,0 5,1 7,2z"/>
   <path id="16" class="fil3" d="M1632 70l6 0 -1 10c3,-4 6,-6 9,-8 4,-2 7,-3 11,-3 7,0 12,3 17,8 4,6 6,12 5,20 -1,8 -4,15 -9,20 -5,6 -11,8 -18,8 -4,0 -7,-1 -10,-2 -3,-2 -6,-5 -8,-8l-3 29 -6 0 7 -74zm24 6c-5,0 -10,2 -14,6 -4,4 -6,9 -7,15 0,4 0,8 1,11 2,4 4,6 7,8 3,2 6,3 9,3 3,0 6,-1 10,-3 3,-2 5,-5 7,-8 2,-3 3,-7 4,-11 0,-4 0,-7 -2,-11 -1,-3 -3,-6 -6,-8 -3,-1 -6,-2 -9,-2z"/>
   <path id="17" class="fil3" d="M1741 70l-5 54 -7 0 1 -9c-3,3 -6,6 -9,8 -3,1 -7,2 -11,2 -7,0 -12,-2 -16,-8 -5,-5 -6,-12 -6,-20 1,-8 4,-14 10,-20 5,-5 11,-8 18,-8 4,0 7,1 10,3 3,2 6,4 8,8l1 -10 6 0zm-25 6c-4,0 -7,1 -10,2 -3,2 -6,5 -8,8 -2,4 -3,7 -3,11 -1,4 0,8 1,11 2,3 4,6 6,8 3,2 6,3 9,3 4,0 7,-1 10,-3 3,-2 6,-4 8,-8 2,-3 3,-7 3,-11 1,-6 0,-11 -4,-15 -3,-4 -7,-6 -12,-6z"/>
   <polygon id="18" class="fil3" points="1749,70 1756,70 1768,111 1788,70 1795,70 1759,144 1753,144 1764,120 "/>
   <path id="19" class="fil3" d="M1803 70l6 0 -1 10c2,-4 5,-6 7,-8 4,-2 7,-3 10,-3 3,0 5,0 7,1 2,1 3,3 4,5 2,1 3,4 3,7 3,-4 5,-8 9,-10 3,-2 6,-3 10,-3 3,0 6,1 8,3 3,2 4,4 5,8 1,3 1,8 1,15l-3 29 -6 0 2 -29c1,-6 1,-10 0,-12 0,-2 -1,-4 -3,-5 -1,-2 -3,-2 -6,-2 -3,0 -6,1 -8,3 -3,2 -5,4 -6,7 -2,4 -3,9 -4,17l-2 21 -6 0 3 -28c0,-6 0,-10 0,-13 -1,-2 -2,-4 -3,-5 -2,-2 -4,-2 -6,-2 -3,0 -6,1 -9,2 -2,2 -4,5 -6,8 -1,4 -2,9 -3,15l-2 23 -6 0 5 -54z"/>
   <path id="20" class="fil3" d="M1924 106l5 3c-2,4 -4,7 -7,9 -2,3 -5,4 -8,6 -3,1 -6,1 -10,1 -7,0 -13,-3 -17,-8 -4,-6 -6,-13 -5,-20 1,-7 3,-13 7,-18 6,-7 12,-10 20,-10 9,0 15,3 19,10 3,5 4,11 4,19l-44 0c0,6 1,11 4,15 3,4 7,6 12,6 3,0 5,-1 8,-1 2,-1 4,-3 6,-4 2,-2 4,-4 6,-8zm1 -14c0,-4 -1,-7 -2,-9 -2,-2 -4,-4 -6,-5 -3,-2 -5,-3 -8,-3 -5,0 -9,2 -13,6 -2,2 -5,6 -6,11l35 0z"/>
   <path id="21" class="fil3" d="M1945 70l7 0 -1 10c2,-4 5,-7 9,-8 3,-2 6,-3 10,-3 3,0 6,1 9,3 2,2 4,5 5,8 1,4 1,9 1,16l-3 28 -6 0 2 -26c1,-6 1,-10 1,-12 -1,-4 -2,-6 -4,-8 -1,-2 -4,-3 -7,-3 -4,0 -7,2 -11,4 -3,3 -5,7 -6,11 -1,2 -2,7 -3,14l-2 20 -6 0 5 -54z"/>
   <polygon id="22" class="fil3" points="2007,50 2014,50 2012,70 2021,70 2021,76 2011,76 2007,124 2000,124 2005,76 1997,76 1997,70 2006,70 "/>
  </g>
 </g>
</svg>
